<?xml version="1.0" encoding="utf-8"?>
<!-- Generator: Adobe Illustrator 27.8.0, SVG Export Plug-In . SVG Version: 6.00 Build 0)  -->
<svg version="1.1" baseProfile="basic" xmlns="http://www.w3.org/2000/svg" xmlns:xlink="http://www.w3.org/1999/xlink" x="0px"
	 y="0px" viewBox="0 0 300 70" xml:space="preserve">
<g id="PT22_Underground_x0A_">
	<g>
		<path d="M253.5,55.1L253.5,55.1l-0.1,13.8l0.1,0.1h2.1l0.1-0.1V58.6l4.5,5.5h0.2l4.5-5.5v10.3l0.1,0.1h2.1l0.1-0.1V55.2l-0.1-0.1
			h-2.1l-0.2,0.1l-4.6,5.6l-4.6-5.6l-0.2-0.1H253.5z M243.4,58.2l2,5.4h-4L243.4,58.2z M242.3,55.1L242.3,55.1l-5.5,13.8l0.1,0.1
			h2.4l0.1-0.1l1.2-3h5.7l1.2,3l0.1,0.1h2.4l0.1-0.1l-5.4-13.7l-0.1-0.1H242.3z M224.1,57.4h2.5c2.8,0,4.8,2,4.8,4.6
			c0,2.7-2,4.6-4.8,4.6h-2.5V57.4z M221.9,55.1L221.9,55.1l-0.1,13.8l0.1,0.1h4.7c4.3,0,7.3-3.1,7.3-6.9c0-3.8-3.1-6.9-7.3-6.9
			H221.9z M209.7,57.4h1.6c1.3,0,2,0.6,2,1.7c0,1.1-0.8,1.7-2,1.7h-1.6V57.4z M207.5,55.1L207.5,55.1l-0.1,13.8l0.1,0.1h2.1l0.1-0.1
			v-5.7h1.5l4.3,5.7l0.1,0.1h2.7l0.1-0.1l-4.6-6.3c1.4-0.6,2.2-1.9,2.2-3.5c0-2.3-1.8-4-4.7-4H207.5z M194.2,55.1L194.2,55.1
			l-0.1,13.8l0.1,0.1h9.2l0.1-0.1v-2.1l-0.1-0.1h-7v-4h4.9l0.1-0.1v-2.1l-0.1-0.1h-4.9v-2.9h6.5l0.1-0.1v-2.1l-0.1-0.1H194.2z
			 M179.3,55.1L179.3,55.1l-0.1,2.2l0.1,0.1h4.3v11.5l0.1,0.1h2.1l0.1-0.1V57.4h4.3l0.1-0.1v-2.1l-0.1-0.1H179.3z M173.9,58.2
			l1.8-1.3c-0.9-1.3-2-2.1-3.7-2.1c-2.1,0-3.8,1.6-3.8,3.7c0,3.9,6,3.7,6,6.3c0,1.2-0.8,2-2,2c-1,0-1.8-0.6-2.3-1.9h-0.2l-1.8,1.3
			c0.7,1.9,2.3,3,4.4,3c2.6,0,4.6-2,4.6-4.5c0-4.6-6-4.5-6-6.3c0-0.8,0.5-1.3,1.2-1.3c0.7,0,1.2,0.4,1.7,1H173.9z M150.2,55.1
			L150.2,55.1l-0.1,13.8l0.1,0.1h2.1l0.1-0.1V58.6l4.5,5.5h0.2l4.5-5.5v10.3l0.1,0.1h2.1l0.1-0.1V55.2l-0.1-0.1h-2.1l-0.2,0.1
			l-4.6,5.6l-4.6-5.6l-0.2-0.1H150.2z M140.1,58.2l2,5.4h-4L140.1,58.2z M139,55.1L139,55.1l-5.5,13.8l0.1,0.1h2.4l0.1-0.1l1.2-3
			h5.7l1.2,3l0.1,0.1h2.4l0.1-0.1l-5.4-13.7l-0.1-0.1H139z M114.2,55.1L114.2,55.1l4.9,7.1v6.7l0.1,0.1h2.1l0.1-0.1v-6.7l5-7
			l-0.1-0.1h-2.5l-0.2,0.1l-3.4,4.7l-3.4-4.7l-0.2-0.1H114.2z M105.6,57.4h1.6c1.3,0,2,0.6,2,1.7c0,1.1-0.8,1.7-2,1.7h-1.6V57.4z
			 M103.4,55.1L103.4,55.1l-0.1,13.8l0.1,0.1h2.1l0.1-0.1v-5.7h1.5l4.3,5.7l0.1,0.1h2.7l0.1-0.1l-4.6-6.3c1.4-0.6,2.2-1.9,2.2-3.5
			c0-2.3-1.8-4-4.7-4H103.4z M90.1,55.1L90.1,55.1L90,68.9l0.1,0.1h9.2l0.1-0.1v-2.1l-0.1-0.1h-7v-4h4.9l0.1-0.1v-2.1l-0.1-0.1h-4.9
			v-2.9h6.5l0.1-0.1v-2.1l-0.1-0.1H90.1z M77.9,55.1L77.9,55.1l-0.1,13.8l0.1,0.1h8.2l0.1-0.1v-2.1l-0.1-0.1h-6V55.2L80,55.1H77.9z
			 M65.7,55.1L65.7,55.1l-0.1,13.8l0.1,0.1h8.2l0.1-0.1v-2.1l-0.1-0.1h-6V55.2l-0.1-0.1H65.7z M55.6,58.2l2,5.4h-4L55.6,58.2z
			 M54.5,55.1L54.5,55.1L49,68.9l0.1,0.1h2.4l0.1-0.1l1.2-3h5.7l1.2,3l0.1,0.1h2.4l0.1-0.1l-5.4-13.7l-0.1-0.1H54.5z M45.6,58.5
			v-2.6c-1.4-0.9-3.1-1.1-5-1.1c-4.3,0-7.5,3.3-7.5,7.2c0,4.1,3.4,7.2,7.6,7.2c1.8,0,3.5-0.5,5-1.4v-6.8L45.7,61H41l-0.1,0.1v2.1
			l0.1,0.1h2.4v3.1c-0.8,0.4-1.8,0.5-2.7,0.5c-3,0-5-2.1-5-4.8c0-2.7,2-4.8,4.9-4.8C42.4,57.2,44.2,57.6,45.6,58.5L45.6,58.5z"/>
		<path d="M261.4,19c0,6.2-4.7,10.8-10.6,10.8c-5.9,0-10.6-4.7-10.6-10.8s4.7-10.8,10.6-10.8C256.7,8.2,261.4,12.9,261.4,19 M269,19
			c0-10.1-8.1-18-18.2-18c-10.1,0-18.2,7.9-18.2,18s8.1,18,18.2,18C260.9,37,269,29.1,269,19"/>
	</g>
	<polygon points="163.2,33.1 172.6,25.8 179.7,35.4 186.2,30.3 179.2,20.7 188.6,13.3 183.8,6.6 174.3,14 167.3,4.3 160.7,9.4 
		167.8,19.1 158.3,26.4 	"/>
	<polygon points="115.4,1.8 115.2,2 115.2,36 115.4,36.3 121.8,36.3 122.1,36 122.1,21.7 137.9,21.7 137.9,36 138.1,36.3 
		144.5,36.3 144.8,36 144.8,2 144.5,1.8 138.1,1.8 137.9,2 137.9,14.8 122.1,14.8 122.1,2 121.8,1.8 	"/>
	<g>
		<path d="M209.1,22h5.9c2.5,0,4.2,1,4.2,3.7c0,2.7-1.7,3.7-4.2,3.7h-5.9V22z M209.1,8.7h4.5c2.7,0,3.9,1.2,3.9,3.2
			s-1.2,3.2-3.9,3.2h-4.5V8.7z M202.4,1.8L202.2,2v34l0.2,0.2h13.1c6.4,0,11.3-3.7,11.3-10.6c0-3.7-2.2-7.2-5.2-8.4
			c2-1,3.5-3.2,3.5-6.2c0-5.9-5.2-9.4-11.6-9.4H202.4z"/>
		<path d="M64.2,19c0,6.2-4.7,10.8-10.6,10.8C47.7,29.9,43,25.2,43,19c0-6.2,4.7-10.8,10.6-10.8C59.5,8.2,64.2,12.9,64.2,19
			 M71.9,19c0-10.1-8.1-18-18.2-18S35.4,8.9,35.4,19s8.1,18,18.2,18S71.9,29.1,71.9,19 M106.5,3c-2.8-1.4-6-2-9.8-2
			C86.7,1,78.5,9.1,78.5,19c0,9.9,8.2,18,18.2,18c3.7,0,7-0.6,9.8-2v-7.8c-2.8,1.8-5.9,2.6-9.8,2.6c-5.9,0-10.6-4.9-10.6-10.8
			c0-5.9,4.7-10.8,10.6-10.8c3.8,0,7,0.8,9.8,2.6V3z"/>
		<path d="M283.1,1.5c-1.1,0.4-2.1,1-3.1,1.7c-0.9,0.7-1.7,1.6-2.3,2.5c-0.6,1-1.1,2.1-1.4,3.2c-0.1,0.5-0.2,0.9-0.3,1.5
			c0,0.5-0.1,1.1-0.1,1.6c0.1,1.4,0.3,2.6,0.8,3.6c0.5,1,1.1,1.9,1.9,2.7c0.8,0.8,1.7,1.4,2.8,2c1.1,0.6,2.2,1.1,3.5,1.6
			c1.1,0.5,2.1,0.8,2.8,1.2c0.8,0.3,1.4,0.7,1.9,1c0.5,0.3,0.8,0.7,1.1,1.1c0.2,0.4,0.3,0.9,0.3,1.5c0,0.9-0.4,1.6-1.2,2.1
			s-1.7,0.8-2.9,0.8c-0.6,0-1.2-0.1-1.9-0.2c-0.7-0.1-1.4-0.3-2.1-0.6c-0.7-0.2-1.4-0.5-2.1-0.9c-0.7-0.4-1.3-0.8-1.9-1.2l-3.9,6.2
			c0.6,0.5,1.4,0.9,2.2,1.4c0.8,0.5,1.7,0.9,2.7,1.3c1,0.4,2.1,0.7,3.2,0.9c1.1,0.2,2.4,0.4,3.7,0.4c3.4,0,6.2-0.9,8.2-2.8
			c2.1-1.8,3.2-4.3,3.5-7.5c0.2-1.7,0-3.2-0.6-4.4c-0.5-1.2-1.3-2.2-2.2-3c-0.9-0.8-1.9-1.5-3.1-2.1c-1.1-0.5-2.2-1-3.3-1.5
			c-0.9-0.4-1.7-0.7-2.4-1c-0.8-0.3-1.4-0.6-2-1c-0.6-0.4-1-0.7-1.3-1.2c-0.3-0.4-0.5-0.9-0.5-1.5c0-0.6,0.3-1.2,1-1.8
			c0.7-0.6,1.6-0.8,2.9-0.8c1.6,0,2.9,0.3,3.9,0.8c1,0.5,1.9,1.1,2.7,1.7l3.7-6.4c-1.4-1.1-3.1-2-5.1-2.6c-2-0.6-3.9-0.9-5.9-0.9
			C285.4,0.9,284.2,1.1,283.1,1.5"/>
	</g>
	<polygon points="22.4,1.8 21.9,2 8.6,14.8 8.6,2 8.4,1.8 2,1.8 1.7,2 1.7,36 2,36.3 8.4,36.3 8.6,36 8.6,21.7 23.4,36 23.9,36.3 
		34.8,36.3 35,36 15.3,18.3 31.3,2 31.1,1.8 	"/>
</g>
<g id="Almarose_Font">
</g>
</svg>
